<svg width="140" height="21" viewBox="0 0 140 21" fill="none" xmlns="http://www.w3.org/2000/svg">
<g id="logo 2" clip-path="url(#clip0_1_178)">
<g id="Group">
<path id="Vector" d="M38.254 16.8197C41.106 16.8197 43.406 15.1977 44.206 12.6037H40.309C39.933 13.2687 39.169 13.6697 38.254 13.6697C37.017 13.6697 36.189 12.9957 35.934 11.6917H44.374C44.425 11.3397 44.455 10.9977 44.455 10.6547C44.455 7.31966 41.918 4.70466 38.254 4.70466C34.686 4.70466 32.079 7.26866 32.079 10.7537C32.079 14.2267 34.707 16.8197 38.254 16.8197ZM40.598 9.52266H36.002C36.319 8.39366 37.112 7.77366 38.254 7.77366C39.435 7.77366 40.254 8.38566 40.598 9.52266ZM51.544 16.8187C52.864 16.8187 54.044 16.3847 54.974 15.6307L55.31 16.4347H58.337V5.06566H55.418L55.018 5.94566C54.078 5.17066 52.883 4.72366 51.544 4.72366C48.068 4.72366 45.583 7.22866 45.583 10.7497C45.583 14.2827 48.068 16.8197 51.544 16.8197V16.8187ZM52.068 13.3517C50.601 13.3517 49.523 12.2437 49.523 10.7587C49.523 9.28366 50.592 8.17566 52.068 8.17566C53.534 8.17566 54.612 9.28366 54.612 10.7587C54.612 12.2437 53.534 13.3517 52.068 13.3517ZM65.191 16.8187C68.211 16.8187 70.216 15.2647 70.216 12.8887C70.216 10.0057 67.829 9.63266 66.033 9.31366C64.953 9.12066 64.083 8.96966 64.083 8.32366C64.083 7.79666 64.505 7.48566 65.133 7.48566C65.843 7.48566 66.33 7.82266 66.33 8.54866H69.997C69.953 6.24566 68.077 4.70566 65.181 4.70566C62.269 4.70566 60.327 6.17566 60.327 8.45566C60.327 11.2127 62.664 11.7447 64.427 12.0297C65.519 12.2107 66.379 12.3977 66.379 13.0537C66.379 13.6407 65.836 13.9337 65.263 13.9337C64.521 13.9337 63.943 13.5507 63.943 12.7197H60.173C60.209 15.1827 62.092 16.8197 65.191 16.8197V16.8187ZM73.291 20.6767C76.227 20.6767 77.635 19.4197 79.168 15.9407L83.932 5.07766H79.726L77.477 11.3407L75.065 5.07766H70.81L75.508 15.5077C74.978 16.9217 74.525 17.3117 73.028 17.3117H71.95V20.6767H73.291ZM91.795 16.8187C95.295 16.8187 97.768 14.3037 97.768 10.7707C97.768 7.23766 95.296 4.72266 91.795 4.72266C90.7986 4.71488 89.8199 4.98649 88.97 5.50666V0.972656H85.1V16.4467H87.997L88.367 15.6027C89.29 16.3737 90.469 16.8187 91.795 16.8187ZM91.272 13.3517C89.805 13.3517 88.727 12.2437 88.727 10.7717C88.727 9.28566 89.805 8.17766 91.272 8.17766C92.738 8.17766 93.816 9.28566 93.816 10.7707C93.816 12.2437 92.729 13.3517 91.272 13.3517ZM104.87 16.8187C106.19 16.8187 107.37 16.3847 108.3 15.6307L108.636 16.4347H111.663V5.06566H108.745L108.344 5.94566C107.405 5.17066 106.209 4.72366 104.87 4.72366C101.394 4.72366 98.91 7.22866 98.91 10.7497C98.91 14.2827 101.394 16.8197 104.87 16.8197V16.8187ZM105.394 13.3517C103.927 13.3517 102.849 12.2437 102.849 10.7587C102.849 9.28366 103.919 8.17566 105.394 8.17566C106.861 8.17566 107.939 9.28366 107.939 10.7587C107.939 12.2437 106.861 13.3517 105.394 13.3517ZM118.047 16.4467V10.3757C118.047 8.92866 118.749 8.07566 119.97 8.07566C120.956 8.07566 121.453 8.73266 121.453 10.0557V16.4457H125.368V9.51566C125.368 6.61866 123.635 4.74266 120.995 4.74266C119.525 4.74266 118.262 5.30766 117.415 6.25066L116.878 5.07866H114.131V16.4477H118.047V16.4467ZM131.795 16.4467V11.6387L134.643 16.4467H139.259L135.357 10.4967L138.9 5.07766H134.503L131.795 9.53166V0.972656H127.879V16.4467H131.795Z" fill="white"/>
<g id="Group_2">
<path id="Vector_2" fill-rule="evenodd" clip-rule="evenodd" d="M11.302 0.972656L0.5 20.6767H6.486L17.289 0.972656H11.302Z" fill="url(#paint0_linear_1_178)"/>
<path id="Vector_3" opacity="0.5" fill-rule="evenodd" clip-rule="evenodd" d="M18.671 0.972656L7.86801 20.6767H13.854L24.657 0.972656H18.671Z" fill="url(#paint1_linear_1_178)"/>
<path id="Vector_4" opacity="0.15" fill-rule="evenodd" clip-rule="evenodd" d="M26.039 0.972656L15.237 20.6767H21.223L32.025 0.972656H26.039Z" fill="url(#paint2_linear_1_178)"/>
</g>
</g>
</g>
<defs>
<linearGradient id="paint0_linear_1_178" x1="1212.58" y1="0.972542" x2="48.9379" y2="1813.84" gradientUnits="userSpaceOnUse">
<stop stop-color="#33D35E"/>
<stop offset="1" stop-color="#2AB6D9"/>
</linearGradient>
<linearGradient id="paint1_linear_1_178" x1="1219.95" y1="0.972542" x2="56.3059" y2="1813.84" gradientUnits="userSpaceOnUse">
<stop stop-color="#33D35E"/>
<stop offset="1" stop-color="#2AB6D9"/>
</linearGradient>
<linearGradient id="paint2_linear_1_178" x1="1227.25" y1="0.972542" x2="63.5737" y2="1813.78" gradientUnits="userSpaceOnUse">
<stop stop-color="#33D35E"/>
<stop offset="1" stop-color="#2AB6D9"/>
</linearGradient>
<clipPath id="clip0_1_178">
<rect width="139" height="20" fill="white" transform="translate(0.5 0.972656)"/>
</clipPath>
</defs>
</svg>
